# xmcd
#
# Track frame offsets:
#	150
#	33593
#	61727
#	74040
#	98161
#	127039
#	140435
#	156502
#	189149
#	209166
#	219045
#	235095
#	252876
#	278379
#	292098
#	299868
#	319291
#
# Disc length: 4680 seconds
#
# Revision: 1
# Processed by: cddbd v1.5.2PL0 Copyright (c) Steve Scherf et al.
# Submitted via: audiograbber 1.83.01
#
DISCID=14124611
DTITLE=DJ DREAM - REMEMBER TRANCE 2005 EDITION
DYEAR=1900
DGENRE=
TTITLE0=Symmetry P
TTITLE1=Man On Mars (DJ Jan Remix)
TTITLE2=Saltwater (Tomski Vs. Disco Citizens Remix)
TTITLE3=Seven Days And One Week (Club Mix)
TTITLE4=Instant Moments (C.M. Remix)
TTITLE5=Meltdown 2000 (Hitch Hiker and Dumont?s Love Mix)
TTITLE6=Just Come Back 2 Me (DJ Thoka?s Extended Mix)
TTITLE7=Don?t You Want Me (Club Mix)
TTITLE8=Love Stimulation (Trance Club Mix)
TTITLE9=Water Wave (DJ Quicksilver Extended Club Mix)
TTITLE10=Cream (ATB Mix)
TTITLE11=Life Is Too Short
TTITLE12=Life
TTITLE13=Come On (Extended Mix)
TTITLE14=Bladerunner (Miss Thunderpussy Remix)
TTITLE15=Scanned State
TTITLE16=Image
EXTD=
EXTT0=
EXTT1=
EXTT2=
EXTT3=
EXTT4=
EXTT5=
EXTT6=
EXTT7=
EXTT8=
EXTT9=
EXTT10=
EXTT11=
EXTT12=
EXTT13=
EXTT14=
EXTT15=
EXTT16=
PLAYORDER=
